<mxfile host="drawio-plugin" modified="2022-08-18T13:23:46.981Z" agent="5.0 (X11; Linux x86_64) AppleWebKit/537.36 (KHTML, like Gecko) Chrome/97.0.4692.45 Safari/537.36" etag="QE9Q_yLVAzGsf0St6LmR" version="15.5.4" type="embed"><diagram id="ybDZK_V6pfwmt40-d9Hz" name="Страница 1"><mxGraphModel dx="954" dy="722" grid="1" gridSize="10" guides="1" tooltips="1" connect="1" arrows="1" fold="1" page="1" pageScale="1" pageWidth="827" pageHeight="1169" math="0" shadow="0"><root><mxCell id="0"/><mxCell id="1" parent="0"/><mxCell id="9ejjLcOiaCxHSEDpTz9a-12" style="edgeStyle=orthogonalEdgeStyle;rounded=0;orthogonalLoop=1;jettySize=auto;html=1;exitX=0.5;exitY=1;exitDx=0;exitDy=0;entryX=0.5;entryY=0;entryDx=0;entryDy=0;" parent="1" source="9ejjLcOiaCxHSEDpTz9a-1" target="9ejjLcOiaCxHSEDpTz9a-3" edge="1"><mxGeometry relative="1" as="geometry"/></mxCell><mxCell id="9ejjLcOiaCxHSEDpTz9a-1" value="Вход (ссылка на массива А)" style="ellipse;whiteSpace=wrap;html=1;fillColor=#f8cecc;strokeColor=#b85450;" parent="1" vertex="1"><mxGeometry x="270" y="210" width="120" height="60" as="geometry"/></mxCell><mxCell id="9ejjLcOiaCxHSEDpTz9a-2" value="Выход (элементы по ссылке массива А отсортированы)" style="ellipse;whiteSpace=wrap;html=1;fillColor=#f8cecc;strokeColor=#b85450;" parent="1" vertex="1"><mxGeometry x="280" y="600" width="140" height="70" as="geometry"/></mxCell><mxCell id="9ejjLcOiaCxHSEDpTz9a-13" style="edgeStyle=orthogonalEdgeStyle;rounded=0;orthogonalLoop=1;jettySize=auto;html=1;exitX=0.5;exitY=1;exitDx=0;exitDy=0;entryX=0.5;entryY=0;entryDx=0;entryDy=0;" parent="1" source="9ejjLcOiaCxHSEDpTz9a-3" target="9ejjLcOiaCxHSEDpTz9a-4" edge="1"><mxGeometry relative="1" as="geometry"/></mxCell><mxCell id="9ejjLcOiaCxHSEDpTz9a-3" value="1.&amp;nbsp; Обхожу массив А в одну из сторон, пусть в правую сторону." style="rounded=0;whiteSpace=wrap;html=1;" parent="1" vertex="1"><mxGeometry x="220" y="280" width="220" height="60" as="geometry"/></mxCell><mxCell id="9ejjLcOiaCxHSEDpTz9a-7" value="" style="edgeStyle=orthogonalEdgeStyle;rounded=0;orthogonalLoop=1;jettySize=auto;html=1;" parent="1" source="9ejjLcOiaCxHSEDpTz9a-4" target="9ejjLcOiaCxHSEDpTz9a-6" edge="1"><mxGeometry relative="1" as="geometry"/></mxCell><mxCell id="9ejjLcOiaCxHSEDpTz9a-10" style="edgeStyle=orthogonalEdgeStyle;rounded=0;orthogonalLoop=1;jettySize=auto;html=1;exitX=0;exitY=0.5;exitDx=0;exitDy=0;entryX=0.375;entryY=-0.017;entryDx=0;entryDy=0;entryPerimeter=0;" parent="1" source="9ejjLcOiaCxHSEDpTz9a-4" target="9ejjLcOiaCxHSEDpTz9a-5" edge="1"><mxGeometry relative="1" as="geometry"/></mxCell><mxCell id="9ejjLcOiaCxHSEDpTz9a-11" style="edgeStyle=orthogonalEdgeStyle;rounded=0;orthogonalLoop=1;jettySize=auto;html=1;exitX=0.75;exitY=1;exitDx=0;exitDy=0;entryX=0.357;entryY=0;entryDx=0;entryDy=0;entryPerimeter=0;" parent="1" source="9ejjLcOiaCxHSEDpTz9a-4" target="9ejjLcOiaCxHSEDpTz9a-8" edge="1"><mxGeometry relative="1" as="geometry"/></mxCell><mxCell id="9ejjLcOiaCxHSEDpTz9a-4" value="2. Тогда для каждого элемента мы выясним принадлежность левой части." style="whiteSpace=wrap;html=1;" parent="1" vertex="1"><mxGeometry x="220" y="350" width="220" height="60" as="geometry"/></mxCell><mxCell id="9ejjLcOiaCxHSEDpTz9a-5" value="Не принадлежит, тогда порядок в массиве сохраняется" style="whiteSpace=wrap;html=1;" parent="1" vertex="1"><mxGeometry x="150" y="450" width="120" height="60" as="geometry"/></mxCell><mxCell id="9ejjLcOiaCxHSEDpTz9a-6" value="Принадлежность согласно условию -&amp;gt; левый элемент больше текущего." style="whiteSpace=wrap;html=1;" parent="1" vertex="1"><mxGeometry x="470" y="350" width="120" height="60" as="geometry"/></mxCell><mxCell id="9ejjLcOiaCxHSEDpTz9a-14" style="edgeStyle=orthogonalEdgeStyle;rounded=0;orthogonalLoop=1;jettySize=auto;html=1;exitX=0.25;exitY=1;exitDx=0;exitDy=0;entryX=0.5;entryY=0;entryDx=0;entryDy=0;" parent="1" source="9ejjLcOiaCxHSEDpTz9a-8" target="9ejjLcOiaCxHSEDpTz9a-2" edge="1"><mxGeometry relative="1" as="geometry"/></mxCell><mxCell id="9ejjLcOiaCxHSEDpTz9a-8" value="Принадлежит, тогда ищем правильную позицию элемента, и все элементы находящиеся между смещяем, для заполнения пустоты полученной текущим элементом. Текущий элемент вставляем в правильную позицию." style="whiteSpace=wrap;html=1;" parent="1" vertex="1"><mxGeometry x="309" y="430" width="210" height="135" as="geometry"/></mxCell></root></mxGraphModel></diagram></mxfile>